With: Mira Sorvino, Victor Garber and Scott Foley

During a gala museum event featuring precious Vatican artifacts, a group of men posing as Templar knights stage a daring robbery. Their primary interest is in obtaining a mechanical decoding device that can supposedly decipher the location of the Templar treasure. Archaeologist Tess Chaykin reluctantly works with FBI Agent Sean Daley to uncover the mastermind behind the plot and possibly locate the treasure.

General:

Complete name                    : The Last\Templar Part One.avi
Format                           : AVI
Format/Info                      : Audio Video Interleave
File size                        : 1.46 GiB
Duration                         : 1h 22mn
Overall bit rate                 : 2 527 Kbps

Video:

Format                           : MPEG-4 Visual
Format profile                   : Simple@L3
Format settings, BVOP            : No
Format settings, QPel            : No
Format settings, GMC             : No warppoints
Format settings, Matrix          : Default (H.263)
Codec ID                         : XVID
Codec ID/Hint                    : XviD
Duration                         : 1h 22mn
Bit rate                         : 2 324 Kbps
Width                            : 720 pixels
Height                           : 576 pixels
Display aspect ratio             : 5:4
Frame rate                       : 25.000 fps
Standard                         : PAL
Color space                      : YUV
Chroma subsampling               : 4:2:0
Bit depth                        : 8 bits
Scan type                        : Progressive
Bits/(Pixel*Frame)               : 0.224
Stream size                      : 1.34 GiB (92%)
Writing library                  : XviD 1.1.2 (UTC 2006-11-01)

Audio:

Format                           : AC-3
Format/Info                      : Audio Coding 3
Mode extension                   : CM (complete main)
Codec ID                         : 2000
Duration                         : 1h 22mn
Bit rate mode                    : Constant
Bit rate                         : 192 Kbps
Channel(s)                       : 2 channels
Channel positions                : Front: L R
Sampling rate                    : 48.0 KHz
Bit depth                        : 16 bits
Stream size                      : 113 MiB (8%)
Alignment                        : Aligned on interleaves
Interleave, duration             : 32 ms (0.80 video frame)